<?xml version="1.0" encoding="utf-8"?>
<!-- Generator: Adobe Illustrator 20.1.0, SVG Export Plug-In . SVG Version: 6.00 Build 0)  -->
<svg version="1.1" id="_x31_472236431_x5F_atom1__x2B__olecule__x2B__M_xA0_Image_1_"
	 xmlns="http://www.w3.org/2000/svg" xmlns:xlink="http://www.w3.org/1999/xlink" x="0px" y="0px" viewBox="0 0 430.1 140.3"
	 style="enable-background:new 0 0 430.1 140.3;" xml:space="preserve">
<style type="text/css">
	.st0{fill:#6C5F45;}
	.st1{fill:#6C5F45;stroke:#FFFFFF;stroke-width:0.9621;stroke-miterlimit:2.6131;}
	.st2{fill:#6C5F45;stroke:#FFFFFF;stroke-width:0.9618;stroke-miterlimit:2.6131;}
	.st3{fill:#6C5F45;stroke:#FFFFFF;stroke-width:1.0003;stroke-miterlimit:2.6131;}
	.st4{fill:none;}
	.st5{fill:#FFFFFF;stroke:#000000;stroke-miterlimit:10;}
	.st6{font-family:'Merriweather';}
	.st7{font-size:86px;}
</style>
<g>
	<path class="st0" d="M84.8,25.5c7,0,12.7-5.7,12.7-12.7S91.8,0,84.8,0C77.8,0,72,5.7,72,12.7S77.8,25.5,84.8,25.5z"/>
	<path class="st0" d="M12.8,86.9c7,0,12.7-5.7,12.7-12.7c0-7-5.7-12.8-12.7-12.8S0,67.1,0,74.1C0,81.1,5.7,86.9,12.8,86.9z"/>
	<path class="st0" d="M106.3,96.5c7,0,12.7-5.7,12.7-12.7c0-7-5.7-12.7-12.7-12.7c-7,0-12.8,5.7-12.8,12.7
		C93.6,90.8,99.3,96.5,106.3,96.5z"/>
	<path class="st0" d="M73.7,140.3c7,0,12.7-5.7,12.7-12.7c0-7-5.7-12.7-12.7-12.7c-7,0-12.8,5.7-12.8,12.7
		C60.9,134.6,66.6,140.3,73.7,140.3z"/>
	<path class="st0" d="M66.5,80.7c8.5,0,15.5-7,15.5-15.5S75,49.7,66.5,49.7c-8.5,0-15.5,7-15.5,15.5S57.9,80.7,66.5,80.7z"/>
	<line class="st1" x1="82.7" y1="22" x2="67.8" y2="64.1"/>
	<line class="st2" x1="107.2" y1="84.5" x2="67.3" y2="64.6"/>
	<line class="st3" x1="71.1" y1="120.8" x2="68.6" y2="65.3"/>
	<line class="st1" x1="23.6" y1="73.9" x2="67.1" y2="63.7"/>
</g>
<rect x="38.1" y="32" class="st4" width="392" height="84"/>
<text transform="matrix(1 0 0 1 38.1342 100.2218)"><tspan x="0" y="0" class="st5 st6 st7">M</tspan><tspan x="83" y="0" class="st6 st7">olecule</tspan></text>
</svg>
